<svg xmlns="http://www.w3.org/2000/svg" viewBox="700 390 1000 1020" fill="#2D2B6B"><path d="M1667.5,896.13c0,258.71-209.72,468.43-468.43,468.43s-468.43-209.72-468.43-468.43,209.72-468.43,468.43-468.43,468.43,209.72,468.43,468.43ZM1619.51,896.17c0-232.19-188.22-420.41-420.41-420.41s-420.41,188.22-420.41,420.41,188.22,420.41,420.41,420.41,420.41-188.22,420.41-420.41Z"/><path d="M1518.76,885.99c5.37,58.71-28.43,118.41-81.29,144.17-48.82,23.8-109.78,17.74-153.69-14.13-20.27-14.71-38.5-30.84-55.18-49.55l-31.59-35.44-46.89-55.13c-15.23-17.9-31.01-34.04-49-49.08-12.3-10.29-25.31-18.33-40.05-24.12-42.19-16.59-89.01-2.09-114.9,34.62s-25.26,85.3,2,121.51c27.91,37.06,78.66,48.79,120.47,28,16.2-8.06,30.47-17.97,43.53-30.67,15.42-13.47,28.58-28.23,42.21-44.45l31.55,36.95c-15.63,18.54-31.61,35.12-49.67,50.47-14.36,11.78-28.21,22.78-45.15,30.71-57.63,26.96-126.86,17.46-171.03-29.95-18.78-20.15-31.98-44.59-37.81-71.68-14.85-69.03,20.85-141.23,86.24-169.26,20.12-8.63,40.73-11.23,62.52-10.86,30.92.52,59.06,11.21,84.1,29,18.73,13.31,34.99,28.19,50.83,45.01,22.19,23.56,42.3,47.86,63.12,72.69,16.77,19.99,33.65,38.67,52.18,56.94,12.83,12.65,26.41,23.37,42.2,31.99,31.36,17.12,67.75,18.5,99.08-.16,29.46-17.54,47.68-49.86,48.46-84.1.56-24.56-6.87-46.46-21.56-65.89-26.76-35.4-73.6-46.73-114.41-29.77-35.03,13.62-67.18,49.36-91.14,77.77l-31.29-37.65c4.8-4.72,9.04-9.62,13.39-14.92,27.38-28.16,52.52-53.51,89.18-69.59,19.39-8.51,39.55-11.54,60.88-11.37,35.23.28,68.21,13.01,94.19,36.83,28.71,26.32,44.96,62.13,48.52,101.12Z"/><g><path d="M1209.17,569.24c-.01,6.11-4.68,9.85-9.67,9.84s-9.71-3.64-9.71-9.37l.03-59.35c0-5.52,6.22-8.03,10.39-7.64,5.29.5,9.05,4.64,9.04,10.42l-.1,56.11Z"/><path d="M1209.3,1280.81c-.22,5.88-5.76,9.17-10.66,8.75-5.4-.47-9.09-4.67-9.09-10.58v-55.96c.01-5.39,4.62-9.3,9.05-9.54,5.43-.29,10.15,3.56,10.33,9.5.59,19.39,1.1,38.42.36,57.82Z"/><path d="M1364.06,600.9c-3.11-1.1-3.95-5.96-.68-11.71l19.15-33.77c1.6-2.82,4.59-3.36,7.43-2.67,2.11.52,4.45,4.48,2.85,7.42l-21.28,39.15c-1.35,2.49-5.5,2.27-7.47,1.57Z"/><path d="M1036.93,593.2c1.76,3.24.16,6.69-2.27,7.69s-5.84.65-7.39-2.12l-20.76-37.03c-1.68-3-1.68-6.86,1-8.62,2.49-1.63,6.93-1.34,8.63,1.8l20.78,38.27Z"/><path d="M1494.19,720.52c-3.28,1.93-6.36-.79-7.21-2.77-1.51-3.52-.24-6.09,2.78-7.9l34.91-20.85c3.15-1.88,6.72-1.35,8.58,1.2,1.69,2.32,1.35,6.51-1.7,8.31l-37.36,22.01Z"/><path d="M1532.59,1094.85c2.66,1.58,1.87,5.74.89,7.31-1.19,1.91-4.53,3.52-7.07,2.03l-36.94-21.65c-3.02-1.77-3.66-5.15-2.42-8.18,1.1-2.66,5.38-3.39,8.44-1.58l37.1,22.06Z"/><path d="M910.09,710.96c2.83,1.79,2.81,5.63,1.19,7.87s-4.82,3.14-7.75,1.39l-36.26-21.62c-3.01-1.79-3.59-4.86-2.55-7.79.92-2.62,5.13-3.76,8.07-2.15,12.8,7.01,24.96,14.49,37.3,22.3Z"/><path d="M872.34,1103.98c-2.63,1.42-5.9.46-7.16-1.57-1.12-1.8-1.62-5.93.83-7.47,12.57-7.9,24.97-15.48,38.18-22.36,2.53-1.32,6-.02,7.32,2.1,1.09,1.76,1.22,5.73-1.46,7.42-12.39,7.77-24.8,14.91-37.71,21.89Z"/><path d="M1016.31,1237.7c-1.68,3.06-5.79,3.16-7.9,2.23-2.69-1.19-3.72-4.94-2.07-7.92l20.2-36.56c1.65-2.98,5.35-3.67,8.12-2.44,2.62,1.17,3.56,4.76,1.89,7.81l-20.24,36.88Z"/><path d="M1392.49,1232.66c1.67,3.04-.61,6.55-2.63,7.34s-5.59.68-6.99-1.84l-21.24-38.34c-1.38-2.5.44-6.52,2.29-7.16,2.23-.76,6.2-.68,7.59,1.85l20.98,38.15Z"/></g></svg>