<svg xmlns="http://www.w3.org/2000/svg" viewBox="140 300 200 260" fill="#2D2B6B"><path d="M248.44,544h-4.19c-.49-.79-1.25-1.49-2.46-2.05-21.56-10.01-47.74-26.33-64.13-43.6-15.49-16.65-26.23-37.1-26.24-60.38l-.04-94.11,94.82-28.18,95.05,28.45-.04,93.85c0,13.13-3.33,24.99-9.01,36.46-15.21,30.6-49.14,51.94-79.01,66.45-1.95.95-3.74,1.58-4.75,3.12ZM250.11,526.7c28.48-15.19,62.47-35.9,72.97-67.83,2.37-7.2,3.98-13.88,3.94-21.5l-.28-51.16c-.03-5.42-1.39-9.92.01-15.5,1.22-4.85-.04-10.3.19-15.86l-80.59-24.34-16.41,5.14-49.89,15.06c-4.82,1.45-9.29,2.06-14.41,4.35v82.88c0,13.83,4.97,25.84,12.07,37.24,13.92,22.33,42.12,39.28,64.86,51.27,2.95,1.56,3.9,2.18,7.54.24Z"/><g><path d="M242.67,492.61l.57-42.7c-3.12-1.23-5.64-.6-8.62-.69-.91-4.53-.59-9.24-.18-14.33l23.1-.54-.11,71.1c-3.78,2.41-7.27,4.19-11.12,6.08-12.39-7.12-24.3-13.45-35.6-22.59l-.29-69.15c-5.24-.65-9.59-.53-15.02.04l-.11,54.09c-8.2-9.95-14.32-22.76-14.34-37.07l-.1-70.74,11.3-3.52c6.07-1.89,11.84-3.39,17.88-5.18l36.14-10.68c3.74-.4,7.38,2.52,11.13,2.98.12,2.58,1.31,6.46-.25,8.1-2.78,2.6-6.89,2.55-10.36,3.59l-51.18,15.38-.02,28.4c5.36.44,9.74.33,14.76-.02l.54-17.15,46.47-13.82.16,44.92c-4.55.69-9.08.35-13.98.25l-.43-25.81c-6.38,1.33-12.01,3.06-18.28,5.35l.02,82.79c5.92,3.81,10.26,7.14,17.92,10.92Z"/><path d="M297.73,435.42c4.36-1.53,8.88-.33,13.64-.55,1.44,28.86-19.2,49.01-42.68,63.89l-1.12-32.27c-.19-5.4.2-9.46.23-14.72l.61-98.5,43.06,12.61.15,33.45c-4.81.06-9.06.25-13.75-.26l-.23-21.35c-4.5-2.6-8.85-3.52-15.25-4.6l.14,95.75c10.31-8.55,14.54-20.38,15.19-33.43Z"/></g></svg>