<svg xmlns="http://www.w3.org/2000/svg" viewBox="780 440 870 880" fill="#2D2B6B"><path d="M1423.82,1163.3l-84.7,58.42c-20.79,14.34-60.88,23.97-84.87,19.32l-107.77-20.92-86.48-16.62c-6.92-1.33-28.9,14.86-35.04,18.75l15.72,26.18c-6.45,5.27-13.58,8.43-20.36,12.69l-27.09,17.01-55.97,34.88c-5.79,3.61-10.58,7.77-17.32,9.99l-38.39-62.52-108.65-175.93,78.2-49.21,42.65-26.28,17.69,29.43,87.1-58.69c22.6-15.23,49.26-21.76,76.3-24.57,35.56-3.7,84.65,10.53,117.4,24.92,15.31,6.73,30.66,13.23,47.8,13.33l100.71.61c13.52.08,25.66,7.1,35.65,15.47,7.38,6.19,11.21,14.39,15.3,22.86,1.42,1.89,5.14-.93,6.81-1.89l68.39-39.42,29.26-16.92c16.66-9.63,35.77-14.82,55.09-13.05,19.07,1.74,36.76,8.88,50.46,22.26,10.21,9.97,17.23,22.23,24.1,34.51,1.26,2.25.32,4.19-1.41,5.39l-47.83,33.16-79.51,55.39-21.57,15.28-24.29,16.88-27.35,19.31ZM1580.19,1011.75c-9.36-11.98-23.91-17.27-39.22-16.63-11.77.49-21.84,5.07-31.91,10.84l-40.61,23.29-44.82,26.21-31.46,18.06c-6.96,22.61-29.99,41.03-54.35,41.06l-171.41.17.39-34.04,170.09-.41c13.9-.03,23.96-13.31,23.98-25.78.02-12.15-9.45-25.68-22.99-25.79l-97.28-.74c-15.59-.12-29.85-4.19-44.15-9.72l-38.99-15.07c-19.21-7.42-38.83-11.73-59.44-13.83-15.3-1.56-29.48.42-44.26,3.96-21.28,5.09-39.22,15.86-57.17,28.26l-66.99,46.27,26.47,42.98,50.57,82.07c12.09-7.66,22.81-15.11,35.02-20.83,8.6-4.03,17.67-4.01,26.84-2.24l29.51,5.6,56.51,11.38,92.06,18.07c27.69,5.43,55.47,1.72,78.71-14.52l42.89-29.99,33.68-23.44,47.17-32.84,113.92-79.83,17.21-12.5ZM881.93,1056.09l-62.89,38.87,112.58,182.15,62.89-38.87-112.58-182.15Z"/><g><path d="M1291.13,572.15c-6.97-3.81-13.88-6.42-21.11-8.44l-27.02-7.53-12.87-53.26c-17.12-.43-33.39-.61-50.12.2-1.95.09-3.83,1.04-4.25,2.96l-10.95,50.01c-4.36,1.73-8.82,2.71-13.55,3.77-18.64,4.16-35.78,11.23-52.08,21.1-5.36,3.24-10.35,6.44-16.02,8.81-7.41-3.42-13.61-7.56-20.28-11.82l-26.13-16.67c-7.34,4.35-30.89,28.51-35.15,34.45-1.37,1.91-2.21,4.01-.92,6.3,8.67,15.37,14.78,23.82,23.16,37.97,1.76,2.97,3.03,4.71,2.67,8.34-.28,2.79-2.54,4.13-4.35,6.93-13.73,21.3-21.61,44.94-27.16,70.01l-53.51,13.4c-.83,18.17-.99,35.43.03,53.65l51.15,13.13c2.29.59,3.17,3.85,3.57,5.92,5.15,26.39,16.16,50.37,31.68,72.79l-27.35,44.64c-1.38,2.25-.64,4.81,1.45,6.1,1.56,2.07,3.33,3.09,5.48,5.27-11.73,5.01-21.04,10.37-32.28,16.36l-15.36-18.34c-1.08-1.29-2.07-2.54-2.24-3.85-.21-1.58,9.71-18.06,12.23-20.75l17.91-29.12c-8.6-16.08-15.69-32.41-20.81-50.03-19.47-5.35-37.8-10.22-57.33-14.34-3.61-34.03-3.94-67.77-.76-101.9.28-3.03.76-5.66,1.76-7.67,17.25-2.69,32.58-7.55,48.92-11.67,2.62-.66,7-.51,7.93-3.69,4.93-16.98,11.76-32.5,20.5-48.09l-30.93-50.42c12.03-17.13,25.98-32.02,40.95-46.65,11.48-11.21,22.7-21.65,36.3-30.64,16.61,9.93,32.69,20.03,48.72,30.8,7.34-2.57,13.09-6.77,19.84-10.03,10.94-4.94,21.55-8.86,33.21-11.87l13.33-57.3c28.14-2.77,55.17-3.19,82.7-1.9l22.04,1.03c1.53.07,3.12.6,3.85,1.34,1.14,1.16.88,3,1.29,4.79l11.92,51.64c17.22,5.2,33.09,11.71,48.61,20.41,2.44,1.37,4.86,1.88,7.45.03,14.59-10.36,29.35-19.77,44.89-28.94,4.27,1.85,7.28,5.02,10.89,7.75l8.49,6.41,28.19,27.71c11.29,11.1,21.36,22.54,29.94,35.56l-29.5,48.41c-1.72,2.82,1.4,6.56,2.62,8.85,7.32,13.74,12.7,27.8,17.3,42.89l21.05,5.34c11.98,3.04,23.45,6.02,35.85,8.84,3.94,36.59,3.69,72.74.1,108.79l-43.93,10.8-12.89,3.63c-4.94,14.68-9.91,28.48-16.88,42.17-1.3,2.55-3.98,6.34-3.3,9.35,9.85,15.08,19.61,29.69,28.33,45.42.99,1.79.99,3.63.22,5.49-14.57,18.29-29.72,35.62-47.66,51.44-9.41-7.02-18.55-12.71-29.31-18.4,10.15-9.31,19.08-18.38,27.84-28.29,3.02-3.21,6.27-5.87,8.68-9.62-7.86-15.58-18.34-27.77-26.4-43.42-.96-1.87-1.85-4.49-.55-6.47,11.8-17.95,20.64-37.04,26.33-57.74l5.12-18.66,52.56-12.93.32-54.12-52.63-13.05-7.21-24.94c-5.3-18.33-13.85-34.89-24.27-50.78-1.62-2.48-.94-4.76.45-7.11l16.71-28.27c3.23-5.47,7.48-10.21,9.51-16.08-6.54-7.99-14.18-14.11-20.92-21.5-3-3.29-13.87-14.71-18.08-15.28l-30.21,20.13c-4.82,3.21-9.27,6.41-14.45,8.65l-33.3-18.19Z"/><g><path d="M1330.42,833.42c13.67-24.09,19.12-51.66,16.78-79.27-2.52-29.76-13.77-56.79-32.18-80.02-25.91-32.7-71.37-52.99-113.02-52.49-21.04.25-41.09,5.54-60.08,14.1-14.08,6.35-32.79,19.15-43.18,31.08-12.06,13.86-22.51,28.63-29.2,45.9-28.75,74.23,5.89,152.35,77.29,184.74,3.05.71,5.69,1.6,8.36,3.8l-11.36,32.01c-35.19-13.99-65.71-35.98-86.93-66.93-19.93-29.07-30.75-62.08-31.37-97.29-1.14-64.07,30.65-120.32,83.99-154.42,51.48-32.9,118.57-35.64,173.36-8.44,43.64,21.67,76.16,59.31,90.71,105.92,16.77,53.75,7.83,107.88-23.12,154.4-4.87,7.32-23.06,28.35-28.67,32.61l-12.27,9.32c-14.29,9.89-28.89,18.37-46.06,24.73l-11.5-32.45c12.08-3.83,23.4-10.37,34.55-17.71-.71-1.45-3.35-.95-2.43-3.04,1.65-.23,2.32.91,4.17,1.66,3.18-2.87,7.44-4.82,10.06-8.2,1.81-2.33,3.32-3.76,5.82-5.32,4.41-2.76,6.86-8.05,10.43-11.49,7.15-6.88,10.89-14.48,15.85-23.22Z"/><path d="M1185.7,872.47c-1.34-40.44,5.94-61.38,36.72-86.91,7.32-6.07,14.15-11.89,19.88-19.36,13.06-17.03,9.46-43.84-6.25-58.09-11.12-10.09-25.64-13.98-40.44-10.96-27.09,5.52-37.64,25.22-39.2,51.23l-34.74-1.2c-.21-45.78,31.66-81.84,78.27-84.69,32.86-2.01,62.81,14.54,77.6,43.84,13.55,26.84,10.03,56.53-7.78,80.64-21.37,28.95-45.17,25.96-48.9,69-.48,5.52.13,10.63-.79,16.22l-34.36.27Z"/><rect x="1184.71" y="905" width="37.12" height="39.3"/></g></g></svg>